<?xml version="1.0" encoding="utf-8"?>
<!-- Generator: Adobe Illustrator 24.2.1, SVG Export Plug-In . SVG Version: 6.00 Build 0)  -->
<svg version="1.1" xmlns="http://www.w3.org/2000/svg" xmlns:xlink="http://www.w3.org/1999/xlink" x="0px" y="0px"
	 viewBox="0 0 35.5 5" style="enable-background:new 0 0 35.5 5;" xml:space="preserve">
<style type="text/css">
	.st0{display:none;}
	.st1{display:inline;fill:#CCCCCC;}
	.st2{fill:#FFFFFF;}
</style>
<g id="Layer_2" class="st0">
	<rect x="-7.2" y="-20" class="st1" width="80" height="80"/>
</g>
<g id="Layer_1">
	<g>
		<path class="st2" d="M0.3,3L0.3,3C0.1,3,0,2.9,0,2.8l0-0.5C0,2.1,0.1,2,0.2,2h0c0.1,0,0.2,0.1,0.2,0.2v0.5C0.5,2.9,0.4,3,0.3,3z"
			/>
	</g>
	<g>
		<path class="st2" d="M6.3,3L6.3,3C6.1,3,6,2.9,6,2.8V2.2C6,2.1,6.1,2,6.3,2h0c0.1,0,0.2,0.1,0.2,0.2v0.5C6.5,2.9,6.4,3,6.3,3z"/>
	</g>
	<g>
		<path class="st2" d="M12.3,3L12.3,3C12.1,3,12,2.9,12,2.8V2.2C12,2.1,12.1,2,12.3,2h0c0.1,0,0.2,0.1,0.2,0.2v0.5
			C12.5,2.9,12.4,3,12.3,3z"/>
	</g>
	<g>
		<path class="st2" d="M18.3,3L18.3,3C18.1,3,18,2.9,18,2.8V2.2C18,2.1,18.1,2,18.3,2l0,0c0.1,0,0.2,0.1,0.2,0.2v0.5
			C18.5,2.9,18.4,3,18.3,3z"/>
	</g>
	<g>
		<path class="st2" d="M24.3,3L24.3,3C24.1,3,24,2.9,24,2.8V2.2C24,2.1,24.1,2,24.3,2h0c0.1,0,0.2,0.1,0.2,0.2v0.5
			C24.5,2.9,24.4,3,24.3,3z"/>
	</g>
	<g>
		<path class="st2" d="M30.2,3.8L30.2,3.8c-0.1,0-0.3-0.1-0.3-0.2v-2c0-0.1,0.1-0.2,0.2-0.2h0c0.1,0,0.2,0.1,0.2,0.2v2
			C30.5,3.6,30.4,3.8,30.2,3.8z"/>
	</g>
</g>
</svg>
